<?xml version="1.0" encoding="UTF-8"?>
<svg version="1.1" xmlns="http://www.w3.org/2000/svg" width="2408" height="402">
<path d="M0 0 C17.47109488 15.20785668 28.64326442 37.19087747 32 60 C33.1923027 80.70330862 32.10971413 99.16613355 23 118 C22.57074219 118.89847656 22.14148438 119.79695312 21.69921875 120.72265625 C9.81890186 143.98130481 -10.12693509 160.45922117 -34.44921875 169.24609375 C-45.12764276 172.69604612 -55.47063135 174.37639818 -66.6875 174.3125 C-68.25951172 174.30404053 -68.25951172 174.30404053 -69.86328125 174.29541016 C-96.61719684 173.88046153 -119.13152955 163.64517494 -138 145 C-138.72703125 144.34515625 -139.4540625 143.6903125 -140.203125 143.015625 C-157.17079203 127.38399474 -166.26694703 102.13631932 -167.22265625 79.5546875 C-167.91156109 53.4915679 -160.32359023 28.78332921 -143 9 C-142.43667969 8.30519531 -141.87335938 7.61039063 -141.29296875 6.89453125 C-126.9106397 -10.51920205 -103.68321759 -22.11732298 -81.38330078 -24.7890625 C-50.54413111 -27.51852804 -23.80001824 -19.85861395 0 0 Z M-85.75 -16.5625 C-86.75740234 -16.36043945 -86.75740234 -16.36043945 -87.78515625 -16.15429688 C-91.49783476 -15.39997944 -91.49783476 -15.39997944 -95 -14 C-95.40128913 -8.1813076 -94.75830278 -3.76577747 -93 1.8125 C-90.84731604 8.89107645 -89.07498608 16.49684245 -92.09375 23.55859375 C-94.55705642 26.71344316 -97.5330935 28.51146122 -100.9375 30.5 C-106.37879169 33.69810083 -110.53929026 36.59167726 -113.125 42.625 C-114.03059793 45.84462573 -114.03059793 45.84462573 -114.3515625 48.58203125 C-115.26472061 55.12633107 -116.61354826 59.82945159 -122 64 C-125.62912689 65.80853499 -128.52844315 66.24921714 -132.5625 66.1875 C-133.95662109 66.17783203 -133.95662109 66.17783203 -135.37890625 66.16796875 C-137.74688899 66.01622023 -139.71311788 65.57731466 -142 65 C-148.27314842 64.50724514 -153.62014419 64.31904603 -159 68 C-164.06009719 78.12019439 -158.21007117 95.87489507 -154.8125 106.125 C-151.06993389 116.01849048 -145.66353565 125.76857361 -139 134 C-138.34 134 -137.68 134 -137 134 C-136.78085938 133.26394531 -136.56171875 132.52789062 -136.3359375 131.76953125 C-134.27785215 125.43631739 -132.798408 121.4790448 -127 118 C-121.76923268 116.18060267 -117.83307046 117.75442208 -113 120 C-110.63131727 121.48050852 -108.45149406 123.15874366 -106.25 124.875 C-98.25556085 130.82729955 -90.05581712 134.05579664 -80.5625 137 C-75.86569408 138.56355811 -72.81679406 139.72937674 -70 144 C-67.50512082 150.46545286 -66.62046931 156.99877776 -66.2109375 163.8828125 C-66.2273807 165.98379281 -66.2273807 165.98379281 -65 167 C-43.46568936 168.86128394 -22.82798988 157.91911916 -6.51171875 145.03515625 C-0.7087879 140.13423538 4.9953396 134.47990275 9 128 C8.78582743 124.2485256 6.65684174 121.64019552 4.19921875 118.8671875 C-0.50807272 114.87058835 -6.42198568 112.55049457 -12 110 C-22.18825003 105.17560929 -22.18825003 105.17560929 -24.0625 100.15234375 C-24.68819993 98.0067144 -25.31319843 95.86088039 -25.9375 93.71484375 C-26.8147204 90.70992909 -26.8147204 90.70992909 -30 89 C-37.18859254 87.70605334 -44.29929395 87.98341461 -51.57421875 88.21484375 C-52.47269531 88.22902344 -53.37117188 88.24320312 -54.296875 88.2578125 C-55.10479492 88.2798877 -55.91271484 88.30196289 -56.74511719 88.32470703 C-59.6002253 87.91356652 -60.92498598 86.97671027 -63 85 C-64.71686249 79.0615882 -63.32739978 74.61670155 -61.5625 68.9375 C-58.86762285 59.5296136 -57.32981636 50.47973422 -60 40.8125 C-61.86833153 33.68948603 -62.23395929 26.5535551 -58.45703125 20.02734375 C-55.33680361 15.68579376 -51.69978697 11.84753221 -48 8 C-47.35933594 7.30777344 -46.71867187 6.61554688 -46.05859375 5.90234375 C-40.59498094 0.16497998 -34.41249139 -4.3830062 -28 -9 C-29.98879422 -10.98879422 -31.18876022 -11.66995319 -33.75 -12.6875 C-34.73226562 -13.09548828 -34.73226562 -13.09548828 -35.734375 -13.51171875 C-38.91989438 -14.1982531 -40.86770776 -13.95621484 -44 -13 C-46.1936436 -11.08627447 -48.07035408 -9.27072607 -50 -7.125 C-54.42139009 -2.27759055 -58.27840681 1.55340882 -65.125 2.375 C-68.36245898 1.95272274 -69.70731928 1.29268072 -72 -1 C-73.86128204 -6.58384613 -73.13770571 -12.31147144 -72 -18 C-76.74752367 -18.16955442 -81.12462867 -17.53937116 -85.75 -16.5625 Z " fill="#5D1185" transform="translate(257,115)"/>
<path d="M0 0 C22.80461258 -0.57433839 45.7880016 5.98229407 62.88671875 21.49609375 C79.04977226 36.87545218 88.29025892 55.69890832 88.92895508 78.08349609 C89.09475872 100.38108946 81.94293928 121.1026872 66.37109375 137.453125 C45.54219102 156.88774326 20.55134114 162.06124988 -7.19140625 161.30029297 C-29.40476391 160.09290223 -48.54980116 148.72552502 -63.61328125 132.88671875 C-77.88817558 116.26984957 -83.48473042 94.80806651 -82.26953125 73.23828125 C-79.97596317 52.11099071 -70.39484158 32.89649896 -54.01489258 19.13183594 C-38.48332516 6.80966446 -19.61750924 0.95469825 0 0 Z M-26.60546875 46.60546875 C-36.63488788 56.00974793 -42.15835114 67.16901469 -42.86328125 80.87109375 C-42.52429719 93.73254788 -36.50148642 105.63291924 -27.30078125 114.43359375 C-15.88405897 123.9377711 -3.11552539 127.29305347 11.51171875 126.12109375 C20.07796092 124.42208847 26.79503446 120.59741474 33.51171875 115.12109375 C34.14851562 114.6209375 34.7853125 114.12078125 35.44140625 113.60546875 C43.48225751 106.52951964 48.74821513 94.37824403 49.72265625 83.83984375 C50.2766099 70.3745089 45.14148312 58.60797489 36.19921875 48.7109375 C18.22262536 31.77465623 -7.47156381 31.35589038 -26.60546875 46.60546875 Z " fill="#6C0583" transform="translate(766.48828125,106.87890625)"/>
<path d="M0 0 C95.13381743 0 95.13381743 0 112.25 15.625 C122.2268702 26.24683959 125.51536116 40.69866925 125.3515625 54.90820312 C124.86924119 68.88212327 121.45421733 82.34470243 112 93 C110.21487357 94.45697819 108.37868125 95.85332664 106.5 97.1875 C105.5615625 97.86167969 104.623125 98.53585938 103.65625 99.23046875 C101.47550097 100.68323244 99.37493028 101.90775612 97 103 C98.36645194 106.66764938 100.02781101 109.90844439 102.0546875 113.25390625 C102.96927734 114.76936035 102.96927734 114.76936035 103.90234375 116.31542969 C104.55332031 117.38696289 105.20429687 118.45849609 105.875 119.5625 C106.53886719 120.66625977 107.20273438 121.77001953 107.88671875 122.90722656 C111.11542467 128.27039725 114.37237902 133.61263409 117.6953125 138.91796875 C118.25492676 139.821521 118.81454102 140.72507324 119.39111328 141.65600586 C120.44224517 143.35073672 121.50526819 145.03816534 122.58154297 146.71704102 C123.04963379 147.47557373 123.51772461 148.23410645 124 149.015625 C124.4125 149.66821289 124.825 150.32080078 125.25 150.99316406 C126 153 126 153 125 158 C111.14 158 97.28 158 83 158 C74.5 141.875 74.5 141.875 71.87304688 136.88232422 C71.15560301 135.52276608 70.43752487 134.16354243 69.71875 132.8046875 C69.33150757 132.07248993 68.94426514 131.34029236 68.54528809 130.58590698 C65.31419268 124.51307124 61.90734232 118.55591303 58.41601562 112.62939453 C57 110 57 110 57 108 C51.06 108 45.12 108 39 108 C39 124.5 39 141 39 158 C26.13 158 13.26 158 0 158 C0 105.86 0 53.72 0 0 Z M39 34 C39 47.53 39 61.06 39 75 C44.094375 75.061875 49.18875 75.12375 54.4375 75.1875 C56.82053345 75.22846802 56.82053345 75.22846802 59.25170898 75.27026367 C72.37772989 75.40704679 72.37772989 75.40704679 83.4375 69.0625 C87.5120203 63.69412089 88.20039282 57.05169239 87.875 50.47265625 C86.93085771 44.71928918 84.45820321 40.71487692 80 37 C72.23966296 32.69738047 62.9934788 33.66540954 54.4375 33.8125 C46.7959375 33.9053125 46.7959375 33.9053125 39 34 Z " fill="#6C0683" transform="translate(1413,108)"/>
<path d="M0 0 C1.6874269 0.00015917 3.37485866 0.00585622 5.06225586 0.01586914 C6.39189613 0.01799156 6.39189613 0.01799156 7.74839783 0.02015686 C10.59133215 0.02577324 13.43418892 0.03832848 16.27709961 0.05102539 C18.19962452 0.05603828 20.12215065 0.06060155 22.04467773 0.06469727 C26.7680151 0.07574798 31.49129419 0.09302356 36.21459961 0.11352539 C40.6195369 9.32312685 44.32531782 18.7907139 48.05548096 28.28762817 C50.12086804 33.5457137 52.19591939 38.79998916 54.26928711 44.05493164 C54.95376419 45.79089851 54.95376419 45.79089851 55.65206909 47.56193542 C59.61795271 57.61540724 63.60501993 67.66039835 67.59741211 77.70336914 C67.91600945 78.50486893 68.23460678 79.30636871 68.56285858 80.13215637 C71.4492602 87.39327999 74.33646174 94.6540854 77.22436523 101.91461182 C80.44468202 110.01136336 83.66259743 118.10905141 86.87283707 126.20980453 C88.60326806 130.5756109 90.34098477 134.93846361 92.08081055 139.30053711 C92.91478669 141.40343865 93.7484688 143.50645684 94.58178711 145.60961914 C94.95788116 146.54757828 95.33397522 147.48553741 95.72146606 148.45191956 C96.05548431 149.29858688 96.38950256 150.14525421 96.73364258 151.01757812 C97.02238251 151.74307358 97.31112244 152.46856903 97.60861206 153.21604919 C98.21459961 155.11352539 98.21459961 155.11352539 98.21459961 158.11352539 C84.35459961 158.11352539 70.49459961 158.11352539 56.21459961 158.11352539 C54.02834961 152.23540039 51.84209961 146.35727539 49.58959961 140.30102539 C42.78084942 121.99918645 35.96244959 103.70095341 29.13977814 85.40430069 C28.40393555 83.43094893 27.66812186 81.45758638 26.93231201 79.48422241 C25.54085543 75.75253734 24.14923201 72.0209145 22.75756836 68.28930664 C22.34255569 67.17637238 21.92754303 66.06343811 21.49995422 64.91677856 C19.41010006 59.31370747 17.31653523 53.71207587 15.21459961 48.11352539 C10.79809125 58.48339847 6.71357753 68.97580461 2.65209961 79.48852539 C2.29431427 80.41330688 1.93652893 81.33808838 1.56790161 82.29089355 C-8.15990176 107.46169502 -17.46698146 132.78901149 -26.78540039 158.11352539 C-40.31540039 158.11352539 -53.84540039 158.11352539 -67.78540039 158.11352539 C-66.01135991 152.79140396 -64.27815108 147.65658299 -62.20336914 142.47680664 C-61.83418869 141.55290382 -61.83418869 141.55290382 -61.45755005 140.6103363 C-60.63217239 138.54774871 -59.80268065 136.48684541 -58.97290039 134.42602539 C-58.36567396 132.91269857 -57.75849805 131.39935149 -57.15136719 129.88598633 C-50.58663454 113.54558831 -43.9258001 97.24401304 -37.27270508 80.93945312 C-30.09779524 63.35368553 -22.96580747 45.75091013 -15.86279297 28.13598633 C-4.56905531 0.13702746 -4.56905531 0.13702746 0 0 Z " fill="#6C0583" transform="translate(1690.785400390625,108.886474609375)"/>
<path d="M0 0 C38.61 0 77.22 0 117 0 C117 10.89 117 21.78 117 33 C91.59 33 66.18 33 40 33 C40 63.36 40 93.72 40 125 C66.4 125 92.8 125 120 125 C120 135.89 120 146.78 120 158 C80.4 158 40.8 158 0 158 C0 105.86 0 53.72 0 0 Z " fill="#6D0582" transform="translate(1194,109)"/>
<path d="M0 0 C38.61 0 77.22 0 117 0 C117 10.89 117 21.78 117 33 C91.26 33 65.52 33 39 33 C39 63.36 39 93.72 39 125 C65.4 125 91.8 125 119 125 C119 135.89 119 146.78 119 158 C79.73 158 40.46 158 0 158 C0 105.86 0 53.72 0 0 Z " fill="#6C0683" transform="translate(2067,109)"/>
<path d="M0 0 C35 0 35 0 43.7421875 7.859375 C45.68835449 10.59008789 45.68835449 10.59008789 46.91210938 13.05078125 C47.39446045 13.97713379 47.87681152 14.90348633 48.3737793 15.85791016 C48.86918213 16.8122998 49.36458496 17.76668945 49.875 18.75 C51.02374652 20.71490482 52.18621148 22.67184508 53.36132812 24.62109375 C55.79003223 28.67824877 58.15220245 32.76425114 60.47167969 36.88476562 C65.44786745 45.63376515 71.07309051 53.94104809 76.68530273 62.28982544 C79.11128857 65.91293394 81.50252252 69.55836565 83.894104 73.20423889 C91.33479817 84.54360114 98.89769116 95.7986145 106.49581909 107.03289795 C108.34632387 109.77008352 110.19427328 112.50897455 112.04125977 115.24853516 C113.21369532 116.98731083 114.38613977 118.7260805 115.55859375 120.46484375 C116.11887772 121.29582581 116.67916168 122.12680786 117.25642395 122.98297119 C120.16242252 127.28945977 123.08119471 131.58656269 126.02001953 135.87071228 C127.83898015 138.52994058 129.63658405 141.20353139 131.4375 143.875 C132.05866699 144.76550049 132.67983398 145.65600098 133.31982422 146.57348633 C133.85236816 147.37165771 134.38491211 148.1698291 134.93359375 148.9921875 C135.38790771 149.65589355 135.84222168 150.31959961 136.31030273 151.00341797 C137 153 137 153 136.12915039 155.75048828 C135.57022095 156.86399658 135.57022095 156.86399658 135 158 C123.25159608 160.43677008 109.40139651 162.88899939 98 158 C88.09192874 150.96024401 82.36904718 137.97600409 76.73799133 127.5589447 C71.44936067 117.77789428 65.32299196 108.62714165 59.10699463 99.41793823 C56.2637516 95.19078889 53.4693385 90.93195405 50.67578125 86.671875 C50.20397934 85.95553391 49.73217743 85.23919281 49.24607849 84.50114441 C45.4353217 78.70423959 41.7257896 72.85481222 38 67 C37.67 97.03 37.34 127.06 37 158 C24.79 158 12.58 158 0 158 C0 105.86 0 53.72 0 0 Z " fill="#6C0583" transform="translate(953,109)"/>
<path d="M0 0 C2.18747006 25.73642658 2.18747006 25.73642658 -3.73364258 33.55273438 C-5.85489525 35.91704383 -8.04905139 38.17119693 -10.34960938 40.36132812 C-13.04356191 43.036152 -15.27227148 46.04299479 -17.5625 49.0625 C-18.46941602 50.22287159 -19.37826584 51.38173441 -20.2890625 52.5390625 C-21.19279571 53.69263988 -22.09644166 54.84628564 -23 56 C-29.13229282 63.8300581 -35.29555658 71.63269448 -41.51708984 79.39208984 C-46.72412363 85.89204375 -51.86402524 92.44386425 -57 99 C-58.89499516 101.41732522 -60.79107001 103.83380035 -62.6875 106.25 C-63.10265869 106.77988525 -63.51781738 107.30977051 -63.94555664 107.85571289 C-67.92956407 112.93212196 -71.96810322 117.96012902 -76 123 C-37.885 123.495 -37.885 123.495 1 124 C1 134.89 1 145.78 1 157 C-42.56 157 -86.12 157 -131 157 C-131 127.15361446 -131 127.15361446 -120.734375 116.640625 C-120.09435547 116.02767578 -119.45433594 115.41472656 -118.79492188 114.78320312 C-116.18657893 112.19188962 -114.04394385 109.33445553 -111.875 106.375 C-107.83838634 101.0699251 -103.70552916 95.85259527 -99.53076172 90.65576172 C-96.16046849 86.45771499 -92.81899029 82.23870327 -89.5 78 C-85.19647778 72.50566349 -80.84710395 67.04973115 -76.48046875 61.60546875 C-73.12903035 57.42266579 -69.80510565 53.21948646 -66.5 49 C-62.69562142 44.14311323 -58.85994789 39.31283763 -55 34.5 C-51.57001881 30.22109017 -48.14221061 25.94080455 -44.75805664 21.62548828 C-43.83842609 20.46154282 -42.90789847 19.30612232 -41.96655273 18.15966797 C-39.63891496 15.29065227 -37.70237329 12.55755932 -36.07421875 9.234375 C-28.67603817 -4.66674725 -13.76736206 -1.17771016 0 0 Z " fill="#6C0583" transform="translate(599,109)"/>
<path d="M0 0 C0.85101288 0.00465271 1.70202576 0.00930542 2.5788269 0.01409912 C15.10745125 0.09425178 27.32303033 0.4685503 39.5625 3.375 C40.42472168 3.57367676 41.28694336 3.77235352 42.17529297 3.97705078 C74.56286671 11.63104458 102.70578145 26.3637216 127.5625 48.375 C128.4803125 49.17035156 129.398125 49.96570312 130.34375 50.78515625 C135.52697737 55.33609233 140.21274573 60.02489156 144.5625 65.375 C144.96581543 65.86597168 145.36913086 66.35694336 145.78466797 66.86279297 C152.69380891 75.3067376 159.02872842 83.96640335 164.5625 93.375 C164.9632373 94.05594727 165.36397461 94.73689453 165.77685547 95.43847656 C191.60970914 140.12396729 196.71845621 192.89379558 183.5625 242.375 C177.95821248 261.92830107 169.29097963 280.74754481 157.5625 297.375 C156.84449219 298.39722656 156.12648438 299.41945313 155.38671875 300.47265625 C149.96636214 307.93407077 143.93133836 314.72518347 137.5625 321.375 C137.03527344 321.93477539 136.50804687 322.49455078 135.96484375 323.07128906 C123.70035425 336.05338167 110.05094649 346.48971971 94.5625 355.375 C93.47453125 356.01824219 92.3865625 356.66148437 91.265625 357.32421875 C63.62966383 373.19936511 32.21720436 379.82607857 0.625 379.75 C-0.22889313 379.74945618 -1.08278625 379.74891235 -1.96255493 379.74835205 C-53.37896631 379.59833276 -99.69270304 358.50783573 -136.25 322.8125 C-173.67723073 284.45641829 -190.18541118 234.56469743 -189.6484375 181.7109375 C-188.92186407 133.97592243 -167.47836412 90.77263521 -135.4375 56.375 C-134.75300781 55.63636719 -134.06851563 54.89773437 -133.36328125 54.13671875 C-110.46344167 30.30564725 -79.53464751 14.26036802 -47.9375 5.625 C-47.26380371 5.43824707 -46.59010742 5.25149414 -45.89599609 5.05908203 C-30.7452634 1.16557811 -15.59282124 -0.15315115 0 0 Z M-37.4375 10.375 C-38.2531543 10.57367676 -39.06880859 10.77235352 -39.90917969 10.97705078 C-77.3728403 20.31847531 -113.85440452 39.96129854 -138.4375 70.375 C-139.68273437 71.88126953 -139.68273437 71.88126953 -140.953125 73.41796875 C-172.87178313 112.57235247 -186.59403912 161.08528736 -181.96875 211.25390625 C-177.66986958 248.55210613 -160.90540933 284.6091501 -135.4921875 312.1328125 C-133.72060243 314.06606313 -132.03967659 316.03789334 -130.375 318.0625 C-127.06573271 321.92629316 -123.34854259 325.13319389 -119.4375 328.375 C-118.94169434 328.79910156 -118.44588867 329.22320312 -117.93505859 329.66015625 C-88.63735049 354.68038155 -49.3711839 372.18648504 -10.40625 372.61328125 C-9.66116684 372.6230751 -8.91608368 372.63286896 -8.14842224 372.64295959 C22.45927436 372.96208972 50.80936054 368.94305718 78.5625 355.375 C79.32449707 355.00358887 80.08649414 354.63217773 80.87158203 354.24951172 C91.80496877 348.85470487 101.98476527 342.93166548 111.5625 335.375 C112.10036133 334.95138184 112.63822266 334.52776367 113.19238281 334.09130859 C151.55788475 303.49326731 176.87082988 259.28365374 182.5625 210.375 C182.67335938 209.43269531 182.78421875 208.49039063 182.8984375 207.51953125 C187.74517403 158.98666948 172.29302305 111.09984532 141.65942383 73.49145508 C126.64336249 55.4705484 109.17838543 40.62638154 88.5625 29.375 C87.93553223 29.03130371 87.30856445 28.68760742 86.66259766 28.33349609 C69.59473973 19.1044666 51.58740019 13.08892009 32.5625 9.375 C31.61552246 9.18736084 30.66854492 8.99972168 29.69287109 8.80639648 C20.1074886 7.10966146 10.63909773 7.01802508 0.9375 7.0625 C0.09389923 7.06465515 -0.74970154 7.0668103 -1.61886597 7.06903076 C-13.77967025 7.11894995 -25.58709138 7.39229878 -37.4375 10.375 Z " fill="#5D1186" transform="translate(189.4375,-0.375)"/>
<path d="M0 0 C3.13971799 0.34885755 4.07894606 1.07999344 6.35546875 3.38671875 C9.27192217 6.26870891 11.50065912 7.35722972 15.3125 8.8125 C15.9413208 9.05548828 16.5701416 9.29847656 17.21801758 9.54882812 C22.43097476 11.52020224 27.72385833 13.24039399 33.02172852 14.96728516 C50.50498309 20.67054473 66.97014899 26.59593073 76 44 C80.93114018 54.34976951 80.41903794 68.06570536 77.5 78.9375 C73.1038512 91.16959123 64.64138856 99.43699218 53.5 105.6875 C31.97599043 115.6419424 5.83795768 114.28398152 -16.0625 106.3125 C-28.20888414 101.61259057 -39.20553971 95.66521663 -49 87 C-47.63864937 82.64023152 -45.95568515 78.61464589 -43.9609375 74.5078125 C-43.67521881 73.91700897 -43.38950012 73.32620544 -43.09512329 72.71749878 C-42.191824 70.85165681 -41.28350839 68.9883102 -40.375 67.125 C-39.75747773 65.8517248 -39.14028701 64.57828876 -38.5234375 63.3046875 C-37.01945183 60.20125692 -35.51096073 57.10004175 -34 54 C-33.50443604 54.38091797 -33.00887207 54.76183594 -32.49829102 55.15429688 C-15.4916837 68.08941138 3.99030126 78.87195891 26 77 C29.85479563 76.03630109 33.85134684 74.46171898 36 71 C37.24885951 65.51540193 37.24885951 65.51540193 35.875 60.25 C31.83171249 55.39805498 27.30749311 53.06586158 21.4375 51 C20.73367187 50.7414624 20.02984375 50.4829248 19.3046875 50.21655273 C15.07495738 48.67790204 10.81546561 47.34339616 6.5 46.0625 C0.96356808 44.25222253 -3.30846593 41.55289202 -7 37 C-10.88683657 29.05619597 -10.74235028 19.94037321 -8.16796875 11.625 C-6.18720814 7.1732571 -3.24370693 3.59918167 0 0 Z " fill="#6C0583" transform="translate(2329,156)"/>
<path d="M0 0 C1.12051758 0.00273422 1.12051758 0.00273422 2.26367188 0.00552368 C13.51045684 0.05167374 24.30287988 0.59260117 35.25 3.3125 C35.95334473 3.47347168 36.65668945 3.63444336 37.38134766 3.80029297 C61.66270262 9.40865563 84.61969284 20.69948724 103.25 37.3125 C104.55710937 38.4571875 104.55710937 38.4571875 105.890625 39.625 C108.37272825 41.82470827 110.81836476 44.05725281 113.25 46.3125 C114.13751953 47.11880859 114.13751953 47.11880859 115.04296875 47.94140625 C144.25992297 75.63158376 158.52668093 116.80494676 160.4375 156.17578125 C161.18269368 199.53673824 144.71063359 240.16441675 115.01171875 271.515625 C105.52257594 281.12556312 95.63993781 289.04208447 84.25 296.3125 C83.67024414 296.68503906 83.09048828 297.05757813 82.49316406 297.44140625 C49.99933934 318.00375651 6.22646792 325.13049091 -31.45703125 317.34765625 C-32.89055024 317.0132681 -34.32151673 316.66778534 -35.75 316.3125 C-36.94955322 316.01448486 -36.94955322 316.01448486 -38.17333984 315.71044922 C-77.020566 305.68511635 -111.8512694 282.26206287 -133.75 248.3125 C-134.39074463 247.32564209 -134.39074463 247.32564209 -135.04443359 246.31884766 C-157.85106187 210.6691572 -165.78559842 166.76678471 -156.75 125.3125 C-156.58902832 124.57064453 -156.42805664 123.82878906 -156.26220703 123.06445312 C-147.15284115 82.98674348 -121.43988664 47.12281884 -87.05908203 24.75732422 C-60.55785973 8.17514685 -31.20620153 -0.15862109 0 0 Z M-33.75 10.3125 C-34.51989258 10.51117676 -35.28978516 10.70985352 -36.08300781 10.91455078 C-64.07495637 18.25048547 -86.63034785 31.65658612 -107.75 51.3125 C-108.42804688 51.93640625 -109.10609375 52.5603125 -109.8046875 53.203125 C-130.24545942 72.74089093 -143.53942311 100.02215016 -149.75 127.3125 C-149.92644043 128.08207031 -150.10288086 128.85164063 -150.28466797 129.64453125 C-154.7164077 149.98924723 -154.37719106 172.03977893 -149.75 192.3125 C-149.56727539 193.1281543 -149.38455078 193.94380859 -149.19628906 194.78417969 C-140.08429605 233.88046497 -115.24911295 267.99700872 -81.4375 289.4375 C-46.39018257 310.24815324 -4.39719305 319.04058578 35.70410156 308.98828125 C57.11216478 303.30574203 76.89107974 294.20373392 94.25 280.3125 C95.13292725 279.60673828 95.13292725 279.60673828 96.03369141 278.88671875 C118.13483735 261.0028985 134.80331007 238.16680655 144.25 211.3125 C144.47671387 210.67344727 144.70342773 210.03439453 144.93701172 209.37597656 C158.0506133 171.76680372 155.52965089 130.08317781 138.43286133 94.14160156 C132.17306469 81.45925664 124.54553248 69.99213884 115.25 59.3125 C114.06083984 57.92224609 114.06083984 57.92224609 112.84765625 56.50390625 C107.16200329 50.02783076 101.09418726 44.5372176 94.25 39.3125 C93.37601563 38.63445312 92.50203125 37.95640625 91.6015625 37.2578125 C74.35783926 24.26180994 55.09919982 15.61911178 34.25 10.3125 C33.55165039 10.13170898 32.85330078 9.95091797 32.13378906 9.76464844 C11.97054795 4.81486304 -13.72269904 4.88376499 -33.75 10.3125 Z " fill="#5D1186" transform="translate(189.75,29.6875)"/>
<path d="M0 0 C0.99 0.66 1.98 1.32 3 2 C3.36914349 3.97962379 3.36914349 3.97962379 3.36076355 6.45449829 C3.36488754 7.39121872 3.36901154 8.32793915 3.3732605 9.29304504 C3.36247467 10.32378647 3.35168884 11.35452789 3.34057617 12.41650391 C3.34123329 14.04091148 3.34123329 14.04091148 3.34190369 15.69813538 C3.33980736 19.29112544 3.31643613 22.88365357 3.29296875 26.4765625 C3.28737581 28.96234889 3.28310429 31.44813857 3.28010559 33.93392944 C3.26980681 39.81653567 3.24614324 45.69897033 3.21605712 51.58150613 C3.17926488 58.93451612 3.16312887 66.28754657 3.14648438 73.640625 C3.11427781 86.76051803 3.06149014 99.88021149 3 113 C-9.87 113 -22.74 113 -36 113 C-36 76.37 -36 39.74 -36 2 C-23.30761468 -5.05132518 -13.34126537 -6.36847859 0 0 Z " fill="#6C0583" transform="translate(1927,153)"/>
<path d="M0 0 C-2.30817116 7.49170911 -5.37222283 14.46566796 -8.6875 21.5625 C-9.19861328 22.66658203 -9.70972656 23.77066406 -10.23632812 24.90820312 C-11.4866402 27.60747498 -12.74127316 30.30464455 -14 33 C-17.11431294 33 -18.18716538 32.5806907 -20.88671875 31.20703125 C-22.03587769 30.6356543 -22.03587769 30.6356543 -23.20825195 30.05273438 C-24.02640381 29.64345703 -24.84455566 29.23417969 -25.6875 28.8125 C-42.45510111 20.63646945 -59.49746246 14.57378153 -77.8828125 20.73828125 C-89.6637997 25.50677607 -96.00235754 33.61095026 -101 45 C-102.27979462 48.83938387 -102.27069701 52.47706373 -102.42578125 56.50390625 C-103 59 -103 59 -105.04296875 60.33984375 C-105.68878906 60.55769531 -106.33460938 60.77554688 -107 61 C-115.44839403 52.71772608 -118.79912796 43.16017301 -119.25 31.4375 C-119.08866287 20.70858076 -116.13864724 11.73893212 -110 3 C-109.4225 2.113125 -108.845 1.22625 -108.25 0.3125 C-79.27870587 -29.4635523 -31.65444082 -17.64417656 0 0 Z " fill="#6C0583" transform="translate(2408,124)"/>
<path d="M0 0 C42.24 0 84.48 0 128 0 C128 11.22 128 22.44 128 34 C85.76 34 43.52 34 0 34 C0 22.78 0 11.56 0 0 Z " fill="#6C0583" transform="translate(1847,108)"/>
<path d="M0 0 C12.21 0 24.42 0 37 0 C37 39.93 37 79.86 37 121 C35.02 121.99 35.02 121.99 33 123 C16.98003135 111.22172518 5.53536311 96.35450216 0 77 C-0.17301532 74.37807481 -0.25400224 71.86834729 -0.22705078 69.25048828 C-0.22734283 68.49858719 -0.22763489 67.7466861 -0.22793579 66.97200012 C-0.22655052 64.50465055 -0.21102748 62.03760885 -0.1953125 59.5703125 C-0.19157951 57.85253057 -0.18873389 56.1347465 -0.18673706 54.41696167 C-0.17912311 49.90915994 -0.15949395 45.40148833 -0.1373291 40.89373779 C-0.11321301 35.47800383 -0.10407903 30.06222622 -0.09242249 24.64645386 C-0.07306817 16.43087891 -0.03473006 8.21558913 0 0 Z " fill="#6C0683" transform="translate(1053,109)"/>
<path d="M0 0 C26.73 0 53.46 0 81 0 C81 10.64597382 78.61721896 17.59647173 72.07421875 25.9296875 C65.60810846 32.38362056 61.74372785 33.56922099 52.60157776 33.56648254 C51.24609361 33.54095729 49.89061981 33.51487745 48.53515625 33.48828125 C47.13269823 33.47894277 45.73022377 33.47183155 44.32774353 33.46684265 C40.65634237 33.44785349 36.98594787 33.39882588 33.31494141 33.34332275 C29.56101338 33.29195343 25.80691605 33.26901618 22.05273438 33.24414062 C14.70093714 33.19335452 7.35189537 33.09547916 0 33 C0 22.11 0 11.22 0 0 Z " fill="#6C0583" transform="translate(471,109)"/>
<path d="M0 0 C3.51520834 2.3707219 5.79390381 5.02530762 7.6875 8.8125 C8.409375 7.884375 9.13125 6.95625 9.875 6 C13.71933755 1.39548271 17.87813209 -0.82734158 23.8359375 -1.390625 C28.87868579 -1.49678812 32.41569367 -1.16783 36.6875 1.8125 C40.31025131 6.41437329 41.81980227 10.06340102 41.80102539 15.84667969 C41.80091209 17.01744049 41.80091209 17.01744049 41.80079651 18.21185303 C41.79563522 19.04428528 41.79047394 19.87671753 41.78515625 20.734375 C41.7837413 21.59436096 41.78232635 22.45434692 41.78086853 23.34039307 C41.77528097 26.08113109 41.76273075 28.82178676 41.75 31.5625 C41.74498339 33.4231759 41.74042077 35.28385309 41.73632812 37.14453125 C41.72531561 41.70055246 41.70805951 46.25651228 41.6875 50.8125 C38.7175 50.8125 35.7475 50.8125 32.6875 50.8125 C32.67291748 49.84948975 32.65833496 48.88647949 32.64331055 47.89428711 C32.58500077 44.29512832 32.50777261 40.69657395 32.42504883 37.09790039 C32.39195223 35.54526638 32.36387349 33.99251647 32.34106445 32.43969727 C32.30723476 30.1975806 32.25491013 27.95651153 32.19921875 25.71484375 C32.19282883 25.02913803 32.1864389 24.34343231 32.17985535 23.63694763 C32.00841698 17.919297 30.82641153 12.95141153 26.6875 8.8125 C22.10068477 8.35381848 19.63620859 8.3746345 15.4375 10.3125 C9.68064158 15.54600765 8.46026848 20.60083609 8.078125 28.15625 C7.99856222 30.87501897 7.96496545 33.59278179 7.9375 36.3125 C7.90929626 37.72139016 7.87936277 39.13024681 7.84765625 40.5390625 C7.77728907 43.96359877 7.72442415 47.38746705 7.6875 50.8125 C4.7175 50.8125 1.7475 50.8125 -1.3125 50.8125 C-1.342229 49.36798462 -1.342229 49.36798462 -1.37255859 47.89428711 C-1.44907179 44.29524151 -1.53771561 40.69657631 -1.62988281 37.09790039 C-1.66798484 35.54524284 -1.70286928 33.99250267 -1.734375 32.43969727 C-1.78043685 30.19778053 -1.83835878 27.95642355 -1.8984375 25.71484375 C-1.90998871 25.02913803 -1.92153992 24.34343231 -1.93344116 23.63694763 C-2.07043459 19.08543993 -2.72669893 15.0869638 -4.3125 10.8125 C-8.02422856 8.33801429 -11.00882473 8.15227709 -15.3125 8.8125 C-19.79193985 11.09447879 -22.14798364 13.31029046 -24.3125 17.8125 C-24.63015167 20.45505338 -24.79995876 22.87698959 -24.82421875 25.51953125 C-24.84216995 26.24492599 -24.86012115 26.97032074 -24.87861633 27.71769714 C-24.93252217 30.02007342 -24.96655001 32.32224479 -25 34.625 C-25.03319068 36.19208568 -25.06768196 37.7591444 -25.10351562 39.32617188 C-25.18823659 43.15479957 -25.25514067 46.9833686 -25.3125 50.8125 C-28.6125 50.8125 -31.9125 50.8125 -35.3125 50.8125 C-35.3125 33.9825 -35.3125 17.1525 -35.3125 -0.1875 C-32.3425 -0.1875 -29.3725 -0.1875 -26.3125 -0.1875 C-25.9825 2.1225 -25.6525 4.4325 -25.3125 6.8125 C-24.87679688 6.40257812 -24.44109375 5.99265625 -23.9921875 5.5703125 C-16.91156457 -0.83596539 -9.25513452 -3.31787841 0 0 Z " fill="#8A5D91" transform="translate(1789.3125,350.1875)"/>
<path d="M0 0 C0.88602402 0.00222061 1.77204803 0.00444122 2.68492126 0.00672913 C3.68588333 0.00680466 4.6868454 0.00688019 5.71813965 0.00695801 C6.80666733 0.01211929 7.89519501 0.01728058 9.01670837 0.02259827 C10.67928932 0.02472069 10.67928932 0.02472069 12.37545776 0.02688599 C15.93168281 0.03250418 19.48784596 0.04505977 23.04405212 0.05775452 C25.44834809 0.06276717 27.85264504 0.06733048 30.25694275 0.07142639 C36.16518918 0.08163062 42.07330098 0.10120247 47.98155212 0.12025452 C47.98155212 11.01025452 47.98155212 21.90025452 47.98155212 33.12025452 C29.83155212 33.12025452 11.68155212 33.12025452 -7.01844788 33.12025452 C-3.36066636 0.20022083 -3.36066636 0.20022083 0 0 Z " fill="#6D0682" transform="translate(2129.0184478759766,171.87974548339844)"/>
<path d="M0 0 C16.5 0 33 0 50 0 C50 10.89 50 21.78 50 33 C31.85 33 13.7 33 -5 33 C-4.360625 28.111875 -3.72125 23.22375 -3.0625 18.1875 C-2.86277588 16.64860107 -2.66305176 15.10970215 -2.45727539 13.52416992 C-2.29735107 12.31349854 -2.13742676 11.10282715 -1.97265625 9.85546875 C-1.81031494 8.61434326 -1.64797363 7.37321777 -1.48071289 6.09448242 C-1 3 -1 3 0 0 Z " fill="#6D0682" transform="translate(1254,172)"/>
<path d="M0 0 C3.3 0 6.6 0 10 0 C10.33 20.46 10.66 40.92 11 62 C11.99 62.495 11.99 62.495 13 63 C13.09765625 69.15234375 13.09765625 69.15234375 13 71 C12 72 12 72 8.625 72.25 C5 72 5 72 3.1875 70.6875 C2.10008964 69.14223264 1.04812103 67.57218154 0 66 C-0.47050781 66.34933594 -0.94101563 66.69867188 -1.42578125 67.05859375 C-2.04839844 67.51363281 -2.67101563 67.96867187 -3.3125 68.4375 C-3.92738281 68.88996094 -4.54226563 69.34242188 -5.17578125 69.80859375 C-10.63148505 73.37174077 -17.77641198 72.60094579 -24 72 C-31.24806881 69.46260699 -35.99011647 63.28280976 -39.875 56.9375 C-42.62353928 49.63000634 -41.97201089 40.62446947 -39.25 33.4375 C-36.02698775 26.63583278 -32.56664079 23.12352177 -25.7109375 19.95703125 C-20.25785674 18.03195231 -15.63212449 17.9944693 -10.21875 20.0625 C-6.73923101 21.74226779 -3.74311783 23.25688217 -1 26 C-0.67 17.42 -0.34 8.84 0 0 Z M-25.75390625 31.65234375 C-30.51445508 37.07822229 -31.29988239 41.10575204 -31.21484375 48.27734375 C-30.73005464 54.42094395 -27.49014102 58.05743715 -23 62 C-19.39531433 64.61028962 -15.28893292 64.64935246 -11 64 C-6.18100596 62.19896182 -2.72791604 59.33907327 0 55 C0.59740415 52.00601562 0.60475641 49.10744736 0.5625 46.0625 C0.58634766 45.27681641 0.61019531 44.49113281 0.63476562 43.68164062 C0.62456352 39.61780048 0.30759972 36.83272815 -2.24609375 33.58203125 C-4.72475163 31.25806974 -6.50963172 29.87757075 -9.625 28.625 C-10.38039063 28.30789063 -11.13578125 27.99078125 -11.9140625 27.6640625 C-17.11536171 26.00821818 -21.93577954 28.05531124 -25.75390625 31.65234375 Z " fill="#8A5D91" transform="translate(1939,330)"/>
<path d="M0 0 C-0.55728913 3.34373475 -1.35173889 6.03312999 -3 9 C-5.77784537 7.93788265 -8.41042774 6.79059809 -11.0625 5.4375 C-16.89663531 2.58249761 -22.58075613 2.47977184 -29 3 C-33.29171769 4.5042801 -33.29171769 4.5042801 -36.17578125 7.8125 C-37.15553602 10.41279703 -37.0268415 12.01747779 -36.625 14.75 C-36.41666667 16.16666667 -36.20833333 17.58333333 -36 19 C-31.31163505 20.642325 -26.62508498 22.13699766 -21.80859375 23.359375 C-20.92623047 23.58882813 -20.04386719 23.81828125 -19.13476562 24.0546875 C-17.33663496 24.5182172 -15.53441597 24.96616719 -13.72851562 25.3984375 C-7.15916761 27.14770061 -2.52915556 29.86671701 2 35 C4.61063918 40.53455507 4.43405263 46.13170567 3 52 C0.66135874 57.30226424 -2.85546671 59.91437098 -8.03515625 62.2734375 C-19.0988428 66.36458203 -32.4198956 64.62510151 -43 60 C-45.5845899 58.48946981 -47.69564568 56.92922688 -50 55 C-49.5206753 50.68607774 -48.2542015 48.83430453 -45 46 C-44.43152344 46.40992188 -43.86304688 46.81984375 -43.27734375 47.2421875 C-34.23452823 53.55253289 -26.03277113 55.17801115 -15 54 C-10.69713717 52.40617175 -10.69713717 52.40617175 -8 49 C-7.46661829 44.12991421 -7.46661829 44.12991421 -9.58203125 39.9296875 C-12.59056712 37.52869118 -15.32486477 36.6331667 -19 35.5 C-19.65919434 35.29133301 -20.31838867 35.08266602 -20.99755859 34.86767578 C-22.99547807 34.23541059 -24.99746816 33.61747234 -27 33 C-29.21082762 32.29949057 -31.41944638 31.59194175 -33.625 30.875 C-34.54539062 30.58367187 -35.46578125 30.29234375 -36.4140625 29.9921875 C-42.06463282 27.8241439 -44.81954074 25.63221022 -47.2734375 20.17578125 C-49.13575578 14.59883887 -48.36629943 9.2419394 -46.09375 3.88671875 C-43.12230032 -1.23903194 -38.76829973 -3.98877672 -33.25 -5.875 C-21.17738372 -8.9480296 -10.39522046 -6.55350855 0 0 Z " fill="#8A5D91" transform="translate(1183,338)"/>
<path d="M0 0 C2.97 0 5.94 0 9 0 C9.33 20.79 9.66 41.58 10 63 C10.66 63 11.32 63 12 63 C12 65.97 12 68.94 12 72 C5.64096386 72.48915663 5.64096386 72.48915663 2.625 70.1875 C1 68 1 68 0 65 C-1.36125 66.175625 -1.36125 66.175625 -2.75 67.375 C-8.42148322 72.27309914 -13.11089606 72.43917507 -20.515625 72.30859375 C-26.99896562 71.73439654 -30.93988731 69.41119838 -35.3125 64.6875 C-40.92895948 57.46851812 -42.49733312 49.61669278 -41.8203125 40.609375 C-40.57896891 33.36398182 -36.70432793 27.63671974 -31.5 22.5625 C-25.64420906 18.90263066 -19.78122575 18.14188193 -13 19 C-7.79782904 20.72811844 -4.92072511 23.07927489 -1 27 C-0.67 18.09 -0.34 9.18 0 0 Z M-26.75 32.1875 C-30.56331962 36.95414952 -32.36761131 41.40456484 -31.9375 47.5625 C-31.014343 53.31982323 -28.75899573 57.36971128 -24.4375 61.375 C-20.22959426 64.18027049 -15.94861979 64.91293503 -11 64 C-7.07378879 62.08065789 -3.34310589 59.88807217 -0.77734375 56.28125 C1.3294117 50.09861088 1.50619066 41.19092672 -1.28515625 35.27734375 C-5.11294636 30.61249703 -9.24581279 28.56045755 -15 27 C-19.52518645 27 -23.32911954 29.46634509 -26.75 32.1875 Z " fill="#8A5D91" transform="translate(2025,330)"/>
<path d="M0 0 C6.43162101 4.34925191 10.10064233 9.40256931 12 17 C12 20.3 12 23.6 12 27 C-1.86 27 -15.72 27 -30 27 C-26.22238831 35.77439925 -26.22238831 35.77439925 -20 41 C-15.61530965 42.46156345 -11.33521532 42.91773053 -6.9921875 41.2109375 C-3.81644187 39.47025684 -2.02327733 38.034916 0 35 C2.64 35.33 5.28 35.66 8 36 C8 40 8 40 6.625 42.4375 C0.70111262 48.22034244 -5.24187035 50.33275072 -13.5 50.625 C-22.06693272 50.30514479 -28.46972514 47.99433028 -34.4375 41.75 C-39.52857343 35.07247309 -41.08488915 27.24762316 -40 19 C-38.25242218 11.45836951 -35.41974416 5.52579665 -29 1 C-20.00761872 -4.15604114 -9.2254346 -5.19907967 0 0 Z M-24.8203125 8.546875 C-28.53993021 12.6079069 -29.01707469 14.10244816 -30 20 C-19.11 20 -8.22 20 3 20 C1.93372653 13.60235915 0.79450194 11.07429779 -4 7 C-11.19956165 3.14212168 -18.43239955 3.11851979 -24.8203125 8.546875 Z " fill="#8A5D91" transform="translate(1319,352)"/>
<path d="M0 0 C4.76972294 4.1409459 8.24096251 8.89510517 10 15 C10 18.63 10 22.26 10 26 C-3.53 26.33 -17.06 26.66 -31 27 C-28.06548163 35.13399041 -28.06548163 35.13399041 -22 40 C-16.92234424 41.69255192 -12.62314185 41.61250636 -7.6875 39.75 C-5.07132616 38.04644494 -3.63344672 36.63166416 -2 34 C0.64 34.33 3.28 34.66 6 35 C6.33 35.99 6.66 36.98 7 38 C4.35738067 42.95203883 -0.09730311 46.33404513 -5.25 48.3359375 C-13.98411732 50.44502833 -23.07965324 50.24234792 -30.9140625 45.609375 C-37.07071817 40.8592961 -40.40503024 34.53623212 -42 27 C-42.81852351 18.40550318 -40.9355326 10.88924616 -35.4375 4.125 C-25.93754988 -5.6696566 -11.63294279 -7.07489025 0 0 Z M-27.875 8.75 C-30.48621299 12.39326322 -30.48621299 12.39326322 -32 19 C-21.11 19 -10.22 19 1 19 C-0.06627347 12.60235915 -1.20549806 10.07429779 -6 6 C-14.07081115 1.67526346 -21.29639349 2.45741986 -27.875 8.75 Z " fill="#8A5D91" transform="translate(1882,353)"/>
<path d="M0 0 C5.9480591 4.51694713 8.72397828 9.35992103 10.6875 16.5 C11.08048911 19.64391285 11 22.83162053 11 26 C-2.86 26 -16.72 26 -31 26 C-27.90787964 35.30004747 -27.90787964 35.30004747 -21.1484375 40.2265625 C-16.36777911 41.94759952 -12.52818492 41.58776343 -7.75 39.75 C-4.93596554 38.15527844 -4.93596554 38.15527844 -3.125 35.75 C-1 34 -1 34 1.0234375 33.96875 C3.0291266 34.2221002 5.01763178 34.60352636 7 35 C6.5073899 39.20891862 5.48670851 40.98010284 2.25 43.6875 C1.23679687 44.55955078 1.23679687 44.55955078 0.203125 45.44921875 C-6.7594467 50.35017791 -14.86436351 49.64529647 -23 49 C-29.15548431 47.44247594 -34.25099887 43.03979646 -38 38 C-42.13490265 29.96260141 -42.62242073 20.63160261 -40.12109375 11.94921875 C-36.83024336 4.79189068 -32.06164483 -0.05279642 -24.6875 -2.875 C-15.89796242 -5.36288606 -7.96643699 -4.54461171 0 0 Z M-26.8125 8.5 C-30.30321004 12.48938291 -31 13.46110892 -31 19 C-20.11 19 -9.22 19 2 19 C-0.84588685 9.93056554 -0.84588685 9.93056554 -7 5 C-14.9941174 2.29450789 -20.28083105 2.69407204 -26.8125 8.5 Z " fill="#8A5D91" transform="translate(1489,353)"/>
<path d="M0 0 C6.20038754 3.77093416 10.093929 9.55307426 12.29296875 16.39453125 C13.09155235 20.31485076 13.58577749 23.51610502 12.29296875 27.39453125 C-1.23703125 27.72453125 -14.76703125 28.05453125 -28.70703125 28.39453125 C-25.77251288 36.52852166 -25.77251288 36.52852166 -19.70703125 41.39453125 C-14.62937549 43.08708317 -10.3301731 43.00703761 -5.39453125 41.14453125 C-2.77835741 39.44097619 -1.34047797 38.02619541 0.29296875 35.39453125 C2.93296875 35.72453125 5.57296875 36.05453125 8.29296875 36.39453125 C8.62296875 37.38453125 8.95296875 38.37453125 9.29296875 39.39453125 C6.65034942 44.34657008 2.19566564 47.72857638 -2.95703125 49.73046875 C-11.68813412 51.83883166 -20.79303957 51.64221818 -28.62109375 47 C-35.20830584 41.9300671 -38.12015003 35.42150545 -39.70703125 27.39453125 C-40.43513594 20.59888746 -38.9627704 13.873621 -35.23046875 8.1171875 C-26.38875258 -2.72299877 -12.79221778 -5.75548113 0 0 Z M-25.58203125 10.14453125 C-28.19324424 13.78779447 -28.19324424 13.78779447 -29.70703125 20.39453125 C-18.81703125 20.39453125 -7.92703125 20.39453125 3.29296875 20.39453125 C2.22669528 13.9968904 1.08747069 11.46882904 -3.70703125 7.39453125 C-11.7778424 3.06979471 -19.00342474 3.85195111 -25.58203125 10.14453125 Z " fill="#8A5D91" transform="translate(2083.70703125,351.60546875)"/>
<path d="M0 0 C5.11524144 4.51143789 7.62652792 9.29902326 8.31884766 16.15966797 C8.35026855 17.25939941 8.38168945 18.35913086 8.4140625 19.4921875 C8.47207031 21.29042969 8.47207031 21.29042969 8.53125 23.125 C8.5621875 24.3625 8.593125 25.6 8.625 26.875 C8.68300781 28.76605469 8.68300781 28.76605469 8.7421875 30.6953125 C8.83616989 33.79673137 8.92183411 36.89814886 9 40 C9.99 40.495 9.99 40.495 11 41 C11.09765625 47.15234375 11.09765625 47.15234375 11 49 C10 50 10 50 6.625 50.25 C3 50 3 50 1.125 48.75 C-0.10506663 46.83656302 -0.61502006 45.23288365 -1 43 C-1.886875 43.78375 -2.77375 44.5675 -3.6875 45.375 C-9.38938824 50.41387798 -15.27065894 50.4353237 -22.609375 50.3125 C-28.54840395 49.76512406 -31.31573148 47.77064127 -35.4375 43.4375 C-37.65808657 38.55220954 -37.75542291 34.2800914 -37 29 C-34.78628678 23.92690721 -31.83931328 22.0017915 -27 19.76171875 C-18.81253686 16.64344666 -10.23881381 17.51281093 -2 20 C-2.81039026 13.2426299 -2.81039026 13.2426299 -6.0625 7.4375 C-10.98858102 5.02686461 -15.34191366 4.16204023 -20.6640625 5.83984375 C-22.37330764 6.54824771 -24.0670352 7.2959346 -25.73828125 8.08984375 C-28 9 -28 9 -32 9 C-34 6 -34 6 -34 3 C-23.69508141 -2.5138006 -10.84467527 -6.73936056 0 0 Z M-26 28 C-28.33984442 30.87648225 -28.33984442 30.87648225 -27.875 34.4375 C-26.93034068 38.28361296 -26.05957584 39.5894251 -23 42 C-19.77060816 43.61469592 -16.50126676 43.45375436 -13 43 C-8.84070078 41.50767594 -4.71816965 39.58002832 -2 36 C-1.63786432 33.48710325 -1.63786432 33.48710325 -1.8125 30.8125 C-1.83957031 29.91144531 -1.86664062 29.01039063 -1.89453125 28.08203125 C-1.92933594 27.39496094 -1.96414063 26.70789063 -2 26 C-10.89370902 23.45894028 -18.03253709 22.40781359 -26 28 Z " fill="#8A5D91" transform="translate(1229,352)"/>
<path d="M0 0 C6.27737398 4.10443683 9.66379053 9.9913716 12 17 C12.82194734 26.02967865 12.5218682 33.55344216 7 41 C2.21170881 46.18409752 -2.25821401 49.59374895 -9.41796875 50.37109375 C-18.38848939 50.52912365 -25.67776647 49.80676297 -32.61328125 43.54296875 C-38.44711566 37.0207763 -40.37231195 29.90636815 -40.203125 21.390625 C-39.47279256 12.79517397 -35.53795168 6.55004387 -29 1 C-19.83688351 -4.56065144 -9.58048367 -4.55072974 0 0 Z M-23 8 C-28.48216603 13.74435657 -30.31783446 18.62693232 -30.21484375 26.5 C-29.69983983 32.49277294 -26.37173206 36.161406 -22 40 C-18.38636269 42.61677184 -14.29786499 42.62777803 -10 42 C-3.82110262 39.48655022 -0.76574881 36.04578974 2 30 C3.80959991 23.8926003 2.56057875 18.69330147 0 13 C-2.64596288 8.88311845 -5.68709646 6.78729292 -10.375 5.4375 C-15.18573434 4.66939956 -18.93503749 5.25017242 -23 8 Z " fill="#8A5D91" transform="translate(2288,352)"/>
<path d="M0 0 C5.61572679 3.66243051 9.49017791 8.34893733 11.58203125 14.79296875 C13.02501645 22.41247003 13.12002071 30.98830865 9.46875 37.96484375 C5.56255371 43.37741893 0.45693346 48.04966526 -6 50 C-15.10027517 50.98802988 -23.50078624 50.78591024 -31 45 C-36.93213288 39.19408272 -39.59829444 32.21790836 -40.375 24.0625 C-39.93659753 15.56423665 -37.23618985 9.04869244 -31.30078125 2.91796875 C-22.3172279 -4.57086775 -10.31075856 -5.09788434 0 0 Z M-24.75 10.25 C-28.70287673 15.08129378 -30.57705259 19.81347025 -30.27734375 26.0234375 C-29.38269789 32.39936434 -26.43730591 35.96225288 -21.62109375 39.8359375 C-17.95291248 42.46995682 -14.38097375 42.57039803 -10 42 C-5.20500166 40.22478935 -1.71281764 37.32041328 1 33 C3.2248376 27.49087833 3.42904503 22.70574914 2 17 C-0.47162749 12.23982854 -3.58208931 9.03189949 -8 6 C-14.81750393 4.01672613 -19.36486845 5.84398328 -24.75 10.25 Z " fill="#8A5D91" transform="translate(1697,352)"/>
<path d="M0 0 C5.13417601 4.50805699 6.65379488 8.47960594 7.5625 15.25 C7.88738481 21.26314659 7.75159973 27.29377725 7.6875 33.3125 C7.67745163 34.95767685 7.66832906 36.60285964 7.66015625 38.24804688 C7.63828623 42.24884615 7.60385854 46.24935666 7.5625 50.25 C4.2625 50.25 0.9625 50.25 -2.4375 50.25 C-2.45208252 49.22116699 -2.46666504 48.19233398 -2.48168945 47.13232422 C-2.53988657 43.29653053 -2.61711703 39.46131078 -2.69995117 35.62597656 C-2.73310018 33.96949616 -2.76116309 32.31290554 -2.78393555 30.65625 C-2.81766732 28.26775366 -2.86998959 25.88025829 -2.92578125 23.4921875 C-2.93217117 22.75757294 -2.9385611 22.02295837 -2.94514465 21.26608276 C-3.07816963 16.55995624 -3.93762403 13.24750282 -6.4375 9.25 C-9.50944908 7.71402546 -12.03994293 8.0234962 -15.4375 8.25 C-21.11299553 10.29317839 -24.73623721 13.84747441 -27.4375 19.25 C-27.59270557 21.57273159 -27.68769167 23.89959313 -27.75390625 26.2265625 C-27.77468735 26.91181 -27.79546844 27.5970575 -27.81687927 28.30307007 C-27.88230185 30.49361069 -27.94122554 32.68427189 -28 34.875 C-28.04319218 36.3593875 -28.0868067 37.84376278 -28.13085938 39.328125 C-28.23797553 42.96862084 -28.33926362 46.60925251 -28.4375 50.25 C-31.4075 50.25 -34.3775 50.25 -37.4375 50.25 C-37.4375 33.42 -37.4375 16.59 -37.4375 -0.75 C-34.4675 -0.75 -31.4975 -0.75 -28.4375 -0.75 C-28.1075 1.56 -27.7775 3.87 -27.4375 6.25 C-26.6125 5.486875 -25.7875 4.72375 -24.9375 3.9375 C-17.87690454 -1.86934486 -8.40587277 -4.27935341 0 0 Z " fill="#895D91" transform="translate(1609.4375,350.75)"/>
<path d="M0 0 C5.50252903 4.8314889 6.78362463 9.11794518 7.5625 16.25 C7.85520563 22.1208919 7.75236103 27.99957015 7.6875 33.875 C7.67744793 35.46744227 7.66832603 37.05989071 7.66015625 38.65234375 C7.63832408 42.51838365 7.60391784 46.38412236 7.5625 50.25 C4.2625 50.25 0.9625 50.25 -2.4375 50.25 C-2.45208252 49.22116699 -2.46666504 48.19233398 -2.48168945 47.13232422 C-2.53988657 43.29653053 -2.61711703 39.46131078 -2.69995117 35.62597656 C-2.73310018 33.96949616 -2.76116309 32.31290554 -2.78393555 30.65625 C-2.81766732 28.26775366 -2.86998959 25.88025829 -2.92578125 23.4921875 C-2.93217117 22.75757294 -2.9385611 22.02295837 -2.94514465 21.26608276 C-3.07816963 16.55995624 -3.93762403 13.24750282 -6.4375 9.25 C-9.50944908 7.71402546 -12.03994293 8.0234962 -15.4375 8.25 C-21.11299553 10.29317839 -24.73623721 13.84747441 -27.4375 19.25 C-27.59270557 21.57273159 -27.68769167 23.89959313 -27.75390625 26.2265625 C-27.77468735 26.91181 -27.79546844 27.5970575 -27.81687927 28.30307007 C-27.88230185 30.49361069 -27.94122554 32.68427189 -28 34.875 C-28.04319218 36.3593875 -28.0868067 37.84376278 -28.13085938 39.328125 C-28.23797553 42.96862084 -28.33926362 46.60925251 -28.4375 50.25 C-31.4075 50.25 -34.3775 50.25 -37.4375 50.25 C-37.4375 33.42 -37.4375 16.59 -37.4375 -0.75 C-34.7975 -0.75 -32.1575 -0.75 -29.4375 -0.75 C-29.1075 1.89 -28.7775 4.53 -28.4375 7.25 C-28.025 6.85167969 -27.6125 6.45335937 -27.1875 6.04296875 C-19.62543416 -0.89455147 -9.82396655 -5.00129206 0 0 Z " fill="#8A5D91" transform="translate(2347.4375,350.75)"/>
<path d="M0 0 C-0.61277612 2.96175123 -1.25372522 4.38058783 -3 7 C-3.66 6.731875 -4.32 6.46375 -5 6.1875 C-5.99 5.795625 -6.98 5.40375 -8 5 C-8.58136719 4.72414063 -9.16273438 4.44828125 -9.76171875 4.1640625 C-15.19113031 1.76322737 -20.23375196 1.38176343 -26 3 C-27.84082311 4.23108801 -27.84082311 4.23108801 -29 6 C-29.2503577 9.62535976 -29.2503577 9.62535976 -29 13 C-28.34515625 13.17015625 -27.6903125 13.3403125 -27.015625 13.515625 C-2.63551036 19.98944075 -2.63551036 19.98944075 1.4375 26.1875 C2.37405492 30.87027462 2.33747828 35.52299023 0.0234375 39.80859375 C-3.07964785 43.82258479 -6.93644194 46.54018728 -12.01049805 47.30175781 C-14.26598899 47.43933435 -16.49054344 47.46640361 -18.75 47.4375 C-19.5447876 47.43282715 -20.3395752 47.4281543 -21.15844727 47.42333984 C-28.82950458 47.230761 -34.62703445 45.2486437 -41 41 C-40.48967606 37.22360282 -39.79233071 35.55277419 -37 33 C-36.26136719 33.433125 -35.52273437 33.86625 -34.76171875 34.3125 C-27.68167918 38.19887496 -22.09753125 40.30043134 -14 39 C-10.75716556 38.27790869 -10.75716556 38.27790869 -9 36 C-8.59173746 33.20284991 -8.76610417 30.85352915 -9 28 C-9.62003906 27.84144531 -10.24007812 27.68289063 -10.87890625 27.51953125 C-16.60075893 26.01202712 -22.28722803 24.38115627 -27.9375 22.625 C-29.18402344 22.24601562 -30.43054687 21.86703125 -31.71484375 21.4765625 C-35.41759208 19.81230701 -36.91987156 18.46006623 -39 15 C-40.05986362 10.08254452 -39.51911483 6.01968985 -37.25 1.5625 C-27.32759988 -9.73801124 -11.63752713 -7.75835142 0 0 Z " fill="#8B5D91" transform="translate(2404,355)"/>
<path d="M0 0 C1.96566692 1.5467543 3.38184155 3.06864959 5 5 C3.68 6.65 2.36 8.3 1 10 C0.13955078 9.55720703 0.13955078 9.55720703 -0.73828125 9.10546875 C-7.44092587 5.82939202 -13.60902266 3.83138988 -21 6 C-23.71648577 7.5451157 -23.71648577 7.5451157 -25 10 C-25.3259856 12.62116511 -25.3259856 12.62116511 -24 15 C-18.74959136 18.10985743 -13.14083637 19.46639057 -7.27734375 20.9296875 C-2.05830873 22.34881688 1.10811693 24.21622479 5 28 C6.9791404 31.95828079 6.66156177 36.8341226 5.38671875 41.0078125 C2.90847921 46.05163043 -0.83744506 48.13050895 -6 50 C-8.98422883 50.52381316 -11.85105174 50.57325676 -14.875 50.5 C-15.66076416 50.49081543 -16.44652832 50.48163086 -17.25610352 50.47216797 C-24.86572126 50.23493203 -30.67952593 48.21364938 -37 44 C-36.37240135 41.07120629 -35.41377341 38.63904371 -34 36 C-31.99276958 36.99687954 -29.99739611 38.00141281 -28.02734375 39.0703125 C-22.01045055 42.10687542 -16.69544019 42.87146999 -10 42 C-6.86930583 41.04535414 -6.86930583 41.04535414 -5 39 C-3.92727438 36.55460214 -3.92727438 36.55460214 -4 34 C-6.29387027 30.55919459 -7.01824936 30.40214897 -10.83203125 29.28125 C-11.79560547 28.98863281 -12.75917969 28.69601562 -13.75195312 28.39453125 C-14.76193359 28.09933594 -15.77191406 27.80414063 -16.8125 27.5 C-18.79999071 26.91234942 -20.78574188 26.3187769 -22.76953125 25.71875 C-23.65229736 25.46029297 -24.53506348 25.20183594 -25.44458008 24.93554688 C-28.91810051 23.66388066 -32.06114213 22.25181049 -34.3125 19.25 C-35.78046219 14.44576011 -35.41524623 10.37065333 -33.4375 5.8125 C-30.83945358 1.04171013 -27.29591805 -0.98743961 -22.10546875 -2.58203125 C-14.65597464 -4.06087331 -6.79746858 -3.48727847 0 0 Z " fill="#8A5D91" transform="translate(2214,352)"/>
<path d="M0 0 C4.64298145 2.50476631 8.40470565 6.10083569 10.078125 11.12109375 C3.453125 14.12109375 3.453125 14.12109375 0.078125 14.12109375 C-1.58854167 12.45442708 -3.25520833 10.78776042 -4.921875 9.12109375 C-9.27290479 6.53399495 -13.16358427 6.97020636 -17.921875 8.12109375 C-22.07518744 9.82017611 -24.07418849 12.17146533 -26.12890625 16.171875 C-28.5990995 22.24392638 -28.20464816 27.08024474 -25.94140625 33.07421875 C-24.08964137 36.79193827 -21.4139825 39.04060211 -18.109375 41.43359375 C-13.9551258 42.73921493 -9.96397317 42.92917548 -5.91796875 41.328125 C-2.73624386 39.59445027 -0.94576222 38.15692459 1.078125 35.12109375 C4.048125 36.11109375 7.018125 37.10109375 10.078125 38.12109375 C8.70611059 43.3042593 5.3744238 46.18514607 1.078125 49.12109375 C-5.61129394 52.55903554 -15.28474946 52.2311935 -22.5 50.50390625 C-28.98971906 47.61674777 -33.20894599 41.88388247 -36.859375 35.99609375 C-39.32856714 29.32467399 -38.99657203 20.38743233 -36.796875 13.68359375 C-33.41700062 6.34219219 -28.34749221 2.06600804 -20.921875 -0.87890625 C-14.20397133 -3.11820747 -6.58634139 -2.47580099 0 0 Z " fill="#8A5D91" transform="translate(2139.921875,350.87890625)"/>
<path d="M0 0 C3.6875 1.5 3.6875 1.5 6 3 C5.34 5.31 4.68 7.62 4 10 C3.24074219 9.91621094 2.48148438 9.83242188 1.69921875 9.74609375 C0.20841797 9.59333984 0.20841797 9.59333984 -1.3125 9.4375 C-2.29863281 9.33308594 -3.28476563 9.22867187 -4.30078125 9.12109375 C-7.09930347 8.83397473 -7.09930347 8.83397473 -10 10 C-10.66 13.63 -11.32 17.26 -12 21 C-7.71 21 -3.42 21 1 21 C1 23.64 1 26.28 1 29 C-3.29 29 -7.58 29 -12 29 C-12 43.19 -12 57.38 -12 72 C-15.3 72 -18.6 72 -22 72 C-22 57.81 -22 43.62 -22 29 C-24.31 29 -26.62 29 -29 29 C-29 26.36 -29 23.72 -29 21 C-26.69 21 -24.38 21 -22 21 C-21.96261719 20.34773438 -21.92523437 19.69546875 -21.88671875 19.0234375 C-21.38241326 12.31914099 -20.64720962 7.38894527 -15.4375 2.6875 C-10.47582577 -0.74750524 -5.91832305 -0.49943654 0 0 Z " fill="#8A5D91" transform="translate(1653,329)"/>
<path d="M0 0 C3.3 0 6.6 0 10 0 C10 5.61 10 11.22 10 17 C13.63 17 17.26 17 21 17 C21 19.64 21 22.28 21 25 C17.37 25 13.74 25 10 25 C10.11795925 29.68157901 10.24218549 34.36293288 10.37231445 39.04418945 C10.41572146 40.637893 10.45739219 42.2316448 10.49731445 43.82543945 C10.55487807 46.11163908 10.61861149 48.39759449 10.68359375 50.68359375 C10.70030624 51.40026718 10.71701874 52.11694061 10.73423767 52.85533142 C10.55018654 56.21527382 10.55018654 56.21527382 12 59 C15.98345803 59.15031917 19.11083128 58.97229218 23 58 C23.66 60.64 24.32 63.28 25 66 C19.02456853 69.18689678 13.73352791 69.77014075 7 69 C4.05787367 67.79913211 2.69230465 66.98587108 0.89111328 64.42089844 C-0.43013984 60.8314338 -0.24468763 57.28807768 -0.1953125 53.515625 C-0.19106766 52.29223419 -0.19106766 52.29223419 -0.18673706 51.04412842 C-0.17556558 48.44593472 -0.15046675 45.84808905 -0.125 43.25 C-0.11496627 41.48568207 -0.10584111 39.72135872 -0.09765625 37.95703125 C-0.07563619 33.63788727 -0.04112733 29.31900259 0 25 C-2.31 25 -4.62 25 -7 25 C-7 22.36 -7 19.72 -7 17 C-4.69 17 -2.38 17 0 17 C0 11.39 0 5.78 0 0 Z " fill="#895E90" transform="translate(1420,333)"/>
<path d="M0 0 C2.97 0 5.94 0 9 0 C9 5.61 9 11.22 9 17 C12.63 17 16.26 17 20 17 C20 19.64 20 22.28 20 25 C16.37 25 12.74 25 9 25 C9.33 36.22 9.66 47.44 10 59 C18.10402133 59.47434165 18.10402133 59.47434165 22 58 C23.50751963 60.39429588 24.00562203 61.76387491 23.9375 64.625 C23 67 23 67 20.78515625 68.12890625 C15.26255686 69.85617086 9.27464901 69.97484958 3.9375 67.6875 C2 66 2 66 0 63 C-0.17207928 60.09815132 -0.23201104 57.29455753 -0.1953125 54.39453125 C-0.1924826 53.55532639 -0.18965271 52.71612152 -0.18673706 51.85148621 C-0.17554385 49.17167897 -0.15044101 46.49220619 -0.125 43.8125 C-0.11496908 41.99544754 -0.10584343 40.17838983 -0.09765625 38.36132812 C-0.07560734 33.90742325 -0.04108351 29.45376833 0 25 C-2.31 25 -4.62 25 -7 25 C-7 22.36 -7 19.72 -7 17 C-4.69 17 -2.38 17 0 17 C0 11.39 0 5.78 0 0 Z " fill="#8A5D91" transform="translate(1252,333)"/>
<path d="M0 0 C3.3 0 6.6 0 10 0 C10.01030746 0.76199203 10.02061493 1.52398407 10.03123474 2.30906677 C10.1290441 9.4755974 10.2315344 16.64203827 10.33933926 23.80842495 C10.39460165 27.4931019 10.44802679 31.17778673 10.49731445 34.86254883 C10.54490932 38.41577841 10.59725007 41.96890875 10.65294075 45.52202034 C10.6733865 46.88042811 10.69209585 48.23886312 10.70907402 49.59731865 C10.73306877 51.49389705 10.76370332 53.39038799 10.79467773 55.28686523 C10.81022202 56.36830307 10.8257663 57.44974091 10.84178162 58.56394958 C10.72758019 60.94751051 10.72758019 60.94751051 12 62 C13.51928038 62.07179964 15.04167482 62.08392007 16.5625 62.0625 C17.38878906 62.05347656 18.21507812 62.04445313 19.06640625 62.03515625 C19.70449219 62.02355469 20.34257813 62.01195312 21 62 C21.33 64.64 21.66 67.28 22 70 C16.67588636 72.40163822 11.77269072 72.87543808 6 72 C3.10316132 69.7984026 1.60702769 68.21405538 0 65 C-0.09160337 62.93707015 -0.1175118 60.87111115 -0.11352539 58.80615234 C-0.11344986 57.50495453 -0.11337433 56.20375671 -0.11329651 54.86312866 C-0.10818947 53.43739789 -0.10297347 52.0116675 -0.09765625 50.5859375 C-0.09579147 49.13148039 -0.09436785 47.67702266 -0.09336853 46.2225647 C-0.08954805 42.39207224 -0.07972176 38.56161763 -0.06866455 34.73114014 C-0.05844035 30.82336947 -0.05386874 26.91559269 -0.04882812 23.0078125 C-0.03809908 15.3385244 -0.02102828 7.6692675 0 0 Z " fill="#895E90" transform="translate(1340,330)"/>
<path d="M0 0 C2.97 0 5.94 0 9 0 C9.01030746 0.73249466 9.02061493 1.46498932 9.03123474 2.21968079 C9.12918764 9.12069508 9.23169903 16.0216282 9.33933926 22.92249775 C9.39451792 26.47035451 9.44792977 30.01821959 9.49731445 33.56616211 C9.55415852 37.64445958 9.61866801 41.72260438 9.68359375 45.80078125 C9.70030624 47.07585037 9.71701874 48.35091949 9.73423767 49.66462708 C9.75418289 50.84562485 9.77412811 52.02662262 9.79467773 53.2434082 C9.81022202 54.28487503 9.8257663 55.32634186 9.84178162 56.39936829 C9.89468675 59.11411733 9.89468675 59.11411733 11 62 C13.97 62 16.94 62 20 62 C20.66 64.64 21.32 67.28 22 70 C16.6592155 72.41883356 11.79104683 72.7304023 6 72 C2.99802536 70.19881522 1.54833634 69.09667268 0 66 C-0.09167789 63.90644981 -0.11750933 61.80990823 -0.11352539 59.71435547 C-0.11367142 59.07032776 -0.11381744 58.42630005 -0.1139679 57.76275635 C-0.1132704 55.63086598 -0.10548566 53.49906263 -0.09765625 51.3671875 C-0.09579149 49.89031014 -0.09436786 48.41343216 -0.09336853 46.93655396 C-0.08954792 43.04687801 -0.07972152 39.15723933 -0.06866455 35.26757812 C-0.05844064 31.29948429 -0.05386881 27.33138445 -0.04882812 23.36328125 C-0.03809885 15.57550384 -0.02102789 7.78775714 0 0 Z " fill="#8A5D91" transform="translate(1368,330)"/>
<path d="M0 0 C2.94676119 2.35740895 4.94473504 4.30769052 5.5859375 8.1171875 C5.53484214 13.58439109 4.82453371 16.88163008 2.1875 21.75 C1.861226 23.45206272 1.57226862 25.16152619 1.3125 26.875 C0.66961546 30.34553118 0.32228291 31.5882605 -2 34.375 C-5.61415135 36.14191844 -7.83249057 36.31857278 -11.8125 35.75 C-14.5625 34.5 -14.5625 34.5 -16.8125 31.75 C-19.87181187 23.50583027 -21.40225516 14.82071609 -18.5 6.375 C-17.04485478 3.24913249 -16.32686621 1.87324257 -13.8125 -0.25 C-8.98799824 -1.85816725 -4.6231662 -2.05474053 0 0 Z " fill="#5D1185" transform="translate(181.8125,169.25)"/>
<path d="M0 0 C2.625 0.375 2.625 0.375 5 1 C5.14248169 2.01030273 5.14248169 2.01030273 5.2878418 3.04101562 C9.46142232 32.10994207 17.19987634 56.60519263 36.8828125 79 C38 81 38 81 37.6796875 83.75 C37.45539063 84.4925 37.23109375 85.235 37 86 C34.80078125 86.32421875 34.80078125 86.32421875 32 86 C11.6063274 67.53590816 -0.42863955 34.75297705 -2.14208984 7.76171875 C-2.19269735 5.84122858 -2.10633565 3.91821176 -2 2 C-1.34 1.34 -0.68 0.68 0 0 Z " fill="#5D1185" transform="translate(62,192)"/>
<path d="M0 0 C27.99340238 0.32677123 57.66654583 13.58246412 78.14453125 32.36328125 C78.98371094 33.33652344 79.82289063 34.30976562 80.6875 35.3125 C80.34643555 37.49682617 80.34643555 37.49682617 79.6875 39.3125 C77.5234375 40.0859375 77.5234375 40.0859375 74.6875 40.3125 C72.1015625 38.5390625 72.1015625 38.5390625 69.3125 35.9375 C50.74367357 19.46130463 27.34185649 11.12101557 2.97412109 8.35058594 C2.05969238 8.24262695 1.14526367 8.13466797 0.203125 8.0234375 C-0.61897461 7.93368652 -1.44107422 7.84393555 -2.28808594 7.75146484 C-4.3125 7.3125 -4.3125 7.3125 -6.3125 5.3125 C-5.60669277 0.6541723 -4.55242854 0.13451966 0 0 Z " fill="#5D1186" transform="translate(198.3125,59.6875)"/>
<path d="M0 0 C0.65185547 1.78051758 0.65185547 1.78051758 1 4 C0.06298828 5.74487305 0.06298828 5.74487305 -1.4296875 7.51171875 C-1.97359131 8.17816406 -2.51749512 8.84460938 -3.07788086 9.53125 C-3.67093018 10.2428125 -4.26397949 10.954375 -4.875 11.6875 C-21.89938435 33.07091804 -28.80688855 57.17786384 -32 84 C-34.375 84.625 -34.375 84.625 -37 85 C-39 83 -39 83 -39.1171875 79.90234375 C-37.43140972 52.30453013 -27.45573782 26.4942546 -10 5 C-9.29488281 4.08734375 -8.58976562 3.1746875 -7.86328125 2.234375 C-5.09908825 -1.08033862 -3.97344724 -1.19203417 0 0 Z " fill="#5D1186" transform="translate(99,102)"/>
<path d="M0 0 C2.475 0.495 2.475 0.495 5 1 C6.70851173 30.09215812 -6.12652215 60.24583343 -25 82 C-27.1484375 84.36328125 -27.1484375 84.36328125 -29 86 C-31.25 85.75 -31.25 85.75 -33 85 C-33.74609375 82.8125 -33.74609375 82.8125 -34 80 C-32.41015625 77.5625 -32.41015625 77.5625 -30.0625 75 C-14.15533907 56.55262577 -4.504049 32.50183462 -2.58081055 8.24072266 C-2.29437421 4.69524806 -2.02709023 3.04063534 0 0 Z " fill="#5D1185" transform="translate(314,192)"/>
<path d="M0 0 C1.41925781 -0.00386719 1.41925781 -0.00386719 2.8671875 -0.0078125 C5.125 0.125 5.125 0.125 6.125 1.125 C6.16563832 2.79117115 6.167721 4.45888095 6.125 6.125 C3.93795874 7.21852063 2.35559069 7.4211099 -0.06640625 7.703125 C-25.37978566 10.84100898 -48.220997 18.53061624 -68.12890625 34.98828125 C-73.32146272 39.14806405 -73.32146272 39.14806405 -76.875 39 C-77.865 38.566875 -77.865 38.566875 -78.875 38.125 C-79.24609375 35.94921875 -79.24609375 35.94921875 -78.875 33.125 C-76.9256191 31.11383206 -75.16754066 29.58049946 -72.9375 27.9375 C-71.99729004 27.2273877 -71.99729004 27.2273877 -71.03808594 26.50292969 C-50.81660152 11.56784808 -25.61283764 -0.07094969 0 0 Z " fill="#5D1185" transform="translate(180.875,59.875)"/>
<path d="M0 0 C0.74609375 2.23828125 0.74609375 2.23828125 1 5 C-12.83013079 24.0650652 -45.09907651 34.66072281 -67.125 38.375 C-72.32283563 39.0322747 -77.78134177 39.71981493 -83 39 C-83.66 38.34 -84.32 37.68 -85 37 C-84.46428571 33.46428571 -84.46428571 33.46428571 -83 32 C-81.61931154 31.75081807 -80.22861839 31.55651924 -78.8359375 31.38671875 C-77.96880127 31.27561768 -77.10166504 31.1645166 -76.20825195 31.05004883 C-75.27327881 30.93040771 -74.33830566 30.8107666 -73.375 30.6875 C-48.4100365 27.24427435 -26.14549257 18.29226636 -7.18359375 1.43359375 C-4.58077685 -0.27523237 -3.05404867 -0.29520681 0 0 Z " fill="#5D1185" transform="translate(277,280)"/>
<path d="M0 0 C3.8208609 1.32957901 6.39569462 2.9785766 9.4375 5.625 C28.49239866 21.18978428 52.76059454 29.22183762 76.97265625 31.640625 C80 32 80 32 82 33 C82.042721 34.66611905 82.04063832 36.33382885 82 38 C80.41771466 39.58228534 78.89576984 39.24724786 76.6875 39.3125 C51.67849826 39.05232833 26.99098161 28.41546217 7 14 C6.10796875 13.36707031 5.2159375 12.73414063 4.296875 12.08203125 C-1.75510316 7.61917314 -1.75510316 7.61917314 -2.828125 4.90625 C-3 3 -3 3 -1.5625 1.25 C-1.046875 0.8375 -0.53125 0.425 0 0 Z " fill="#5D1185" transform="translate(105,280)"/>
<path d="M0 0 C3.88129767 0.39198536 5.74515695 1.22090558 8.25 4.1875 C21.30726728 20.18406554 30.10249293 39.01899425 35 59 C35.24492187 59.99386719 35.48984375 60.98773438 35.7421875 62.01171875 C37.29845973 69.31340694 37.19543594 76.56257684 37 84 C34.525 84.495 34.525 84.495 32 85 C30.03762683 82.05644024 29.69329579 81.05652278 29.32421875 77.7109375 C29.22157715 76.86063965 29.11893555 76.0103418 29.01318359 75.13427734 C28.90570801 74.22371582 28.79823242 73.3131543 28.6875 72.375 C25.47687114 48.26025098 16.4068472 26.98685903 0.7265625 8.2890625 C-1.29808239 5.60480479 -1.45645096 4.28644691 -1 1 C-0.67 0.67 -0.34 0.34 0 0 Z " fill="#5D1186" transform="translate(282,102)"/>
<path d="M0 0 C2.97 0 5.94 0 9 0 C9.33 2.31 9.66 4.62 10 7 C10.47050781 6.57847656 10.94101563 6.15695312 11.42578125 5.72265625 C12.04839844 5.17480469 12.67101563 4.62695312 13.3125 4.0625 C13.92738281 3.51722656 14.54226563 2.97195313 15.17578125 2.41015625 C18.09831778 0.15097919 20.62035524 -0.12097778 24.1875 -0.0625 C26.0746875 -0.0315625 26.0746875 -0.0315625 28 0 C28 2.64 28 5.28 28 8 C26.78763672 8.32871094 26.78763672 8.32871094 25.55078125 8.6640625 C18.85953752 10.64964266 14.77210516 12.01666079 11 18 C9.5235764 20.9528472 9.77727061 23.68448983 9.68359375 26.9765625 C9.66281265 27.66181 9.64203156 28.3470575 9.62062073 29.05307007 C9.55519815 31.24361069 9.49627446 33.43427189 9.4375 35.625 C9.39430782 37.1093875 9.3506933 38.59376278 9.30664062 40.078125 C9.19952447 43.71862084 9.09823638 47.35925251 9 51 C6.03 51 3.06 51 0 51 C0 34.17 0 17.34 0 0 Z " fill="#8A5D91" transform="translate(1719,350)"/>
<path d="M0 0 C3.3 0 6.6 0 10 0 C10 17.16 10 34.32 10 52 C6.7 52 3.4 52 0 52 C0 34.84 0 17.68 0 0 Z " fill="#8A5D91" transform="translate(2229,350)"/>
<path d="M0 0 C3.3 0 6.6 0 10 0 C10 17.16 10 34.32 10 52 C6.7 52 3.4 52 0 52 C0 34.84 0 17.68 0 0 Z " fill="#8A5D91" transform="translate(1395,350)"/>
<path d="M0 0 C3.3 0 6.6 0 10 0 C10 17.16 10 34.32 10 52 C7.03 52 4.06 52 1 52 C0 51 0 51 -0.12025452 48.94358826 C-0.11803391 48.03979935 -0.11581329 47.13601044 -0.11352539 46.20483398 C-0.11344986 45.18385117 -0.11337433 44.16286835 -0.11329651 43.11094666 C-0.10813522 42.0005452 -0.10297394 40.89014374 -0.09765625 39.74609375 C-0.0962413 38.61551041 -0.09482635 37.48492706 -0.09336853 36.32008362 C-0.08775019 32.69252935 -0.07519458 29.06503576 -0.0625 25.4375 C-0.05748736 22.98502693 -0.05292405 20.5325529 -0.04882812 18.08007812 C-0.0377748 12.05336187 -0.02049788 6.02669124 0 0 Z " fill="#895D91" transform="translate(1549,350)"/>
<path d="M0 0 C2.97 0 5.94 0 9 0 C9 17.16 9 34.32 9 52 C6.03 52 3.06 52 0 52 C0 34.84 0 17.68 0 0 Z " fill="#895D90" transform="translate(2159,350)"/>
<path d="M0 0 C9.57 0 19.14 0 29 0 C29 2.97 29 5.94 29 9 C19.43 9 9.86 9 0 9 C0 6.03 0 3.06 0 0 Z " fill="#8A5E90" transform="translate(1508,370)"/>
<path d="M0 0 C3.3 0 6.6 0 10 0 C10 3.63 10 7.26 10 11 C6.7 11 3.4 11 0 11 C0 7.37 0 3.74 0 0 Z " fill="#8A5E91" transform="translate(2229,330)"/>
<path d="M0 0 C3.3 0 6.6 0 10 0 C10 3.63 10 7.26 10 11 C6.7 11 3.4 11 0 11 C0 7.37 0 3.74 0 0 Z " fill="#895D91" transform="translate(1549,330)"/>
<path d="M0 0 C3.3 0 6.6 0 10 0 C10 3.63 10 7.26 10 11 C6.7 11 3.4 11 0 11 C0 7.37 0 3.74 0 0 Z " fill="#895E91" transform="translate(1395,330)"/>
<path d="M0 0 C2.97 0 5.94 0 9 0 C9 3.63 9 7.26 9 11 C6.03 11 3.06 11 0 11 C0 7.37 0 3.74 0 0 Z " fill="#8A5D91" transform="translate(2159,330)"/>
</svg>
